# xmcd CD database file
#
# Track frame offsets:
#	150
#	22691
#	38655
#	62277
#	79603
#	95310
#	112426
#	128133
#	145584
#	159846
#
# Disc length: 2418 seconds
#
# Revision: 3
# Processed by: cddbd v1.4PL0 Copyright (c) Steve Scherf et al.
# Submitted via: CDex 1.51
#
DISCID=6c09700a
DTITLE=Koko Taylor - Queen of The Blues
DYEAR=1975
DGENRE=Blues
TTITLE0=Evil
TTITLE1=Beer Bottle Boogie
TTITLE2=I Cried Like A Baby
TTITLE3=I Can Love You Like A Woman (Or I Can Fight You Like A Man)
TTITLE4=Flamin' Mamie
TTITLE5=Something Inside Me
TTITLE6=The Hunter
TTITLE7=Queen Bee
TTITLE8=I Don't Care No More
TTITLE9=Come To Mama
EXTD=YEAR: 1975
EXTT0=
EXTT1=
EXTT2=
EXTT3=
EXTT4=
EXTT5=
EXTT6=
EXTT7=
EXTT8=
EXTT9=
PLAYORDER=
